<?xml version="1.0" encoding="UTF-8"?>
<svg width="299px" height="290px" viewBox="0 0 299 290" version="1.1" xmlns="http://www.w3.org/2000/svg" xmlns:xlink="http://www.w3.org/1999/xlink">
    <!-- Generator: Sketch 63.1 (92452) - https://sketch.com -->
    <title>finger-swipe</title>
    <desc>Created with Sketch.</desc>
    <g id="Page-1" stroke="none" stroke-width="1" fill="none" fill-rule="evenodd">
        <g id="Artboard" transform="translate(-14.000000, -14.000000)" fill-rule="nonzero">
            <g id="finger-swipe" transform="translate(14.000000, 14.000000)">
                <path d="M218.731,122.913 L180.239,116.877 L180.239,49.702 C180.239,33.75 167.261,20.772 151.309,20.772 L150.876,20.772 C134.924,20.772 121.946,33.75 121.946,49.702 L121.946,157.583 L82.152,140.528 C74.156,137.101 65.047,137.915 57.785,142.704 C50.523,147.492 46.188,155.545 46.188,164.243 L46.188,164.606 C46.188,171.967 49.343,178.995 54.844,183.886 L121.947,243.555 L121.947,272.544 C121.947,276.687 125.305,280.044 129.447,280.044 C133.589,280.044 185.6875,293.143 185.6875,289 C222.9165,282.392667 241.531,278.061667 241.531,276.007 L234.884,269.081 C232.971,272.756 234.4,277.284 238.074,279.196 C239.18,279.772 240.364,280.046 241.531,280.046 C244.239,280.046 246.854,278.574 248.19,276.007 L268.535,236.919 C275.503,223.532 279.185,208.479 279.185,193.387 L279.185,192.621 C279.185,175.663 273.063,159.27 261.948,146.463 C250.845,133.671 235.499,125.309 218.731,122.913 Z" id="Path" fill="#FFFFFF"></path>
                <path d="M218.731,122.913 L180.239,116.877 L180.239,49.702 C180.239,33.75 167.261,20.772 151.309,20.772 L150.876,20.772 C134.924,20.772 121.946,33.75 121.946,49.702 L121.946,157.583 L82.152,140.528 C74.156,137.101 65.047,137.915 57.785,142.704 C50.523,147.492 46.188,155.545 46.188,164.243 L46.188,164.606 C46.188,171.967 49.343,178.995 54.844,183.886 L121.947,243.555 L121.947,272.544 C121.947,276.687 125.305,280.046 129.447,280.046 C133.589,280.046 136.947,276.687 136.947,272.544 L136.947,240.188 C136.947,238.76 112.902,216.256667 64.812,172.678 C62.509,170.63 61.188,167.689 61.188,164.607 L61.188,164.244 C61.188,160.549 62.958,157.262 66.042,155.227 C69.127,153.193 72.846,152.86 76.243,154.316 L126.49,175.85 C126.951,176.048 127.434,176.203 127.937,176.306 C128.686,176.461 129.442,176.494 130.181,176.421 C130.286,176.411 130.388,176.391 130.492,176.377 C130.626,176.358 130.76,176.342 130.893,176.315 C131.045,176.286 131.192,176.246 131.34,176.207 C131.422,176.186 131.506,176.167 131.587,176.144 C131.75,176.095 131.908,176.037 132.067,175.978 C132.134,175.953 132.202,175.931 132.268,175.904 C132.421,175.842 132.57,175.771 132.717,175.699 C132.788,175.665 132.86,175.633 132.93,175.596 C133.062,175.527 133.189,175.45 133.317,175.373 C133.4,175.323 133.484,175.275 133.565,175.222 C133.671,175.152 133.773,175.076 133.875,175.001 C133.971,174.931 134.068,174.862 134.161,174.787 C134.245,174.719 134.324,174.646 134.404,174.575 C134.507,174.485 134.61,174.395 134.708,174.299 C134.779,174.229 134.844,174.155 134.912,174.082 C135.009,173.978 135.108,173.876 135.199,173.766 C135.272,173.68 135.337,173.588 135.406,173.498 C135.483,173.397 135.562,173.299 135.634,173.193 C135.725,173.06 135.807,172.921 135.889,172.782 C135.93,172.713 135.974,172.648 136.013,172.577 C136.373,171.926 136.641,171.216 136.794,170.464 C136.898,169.961 136.946,169.454 136.946,168.952 L136.946,49.702 C136.946,42.021 143.195,35.772 150.876,35.772 L151.309,35.772 C158.99,35.772 165.239,42.021 165.239,49.702 L165.239,121.727 C165.239,122.004 165.256,122.276 165.286,122.545 C164.89,126.479 167.625,130.082 171.578,130.701 L216.458,137.738 C216.493,137.744 216.529,137.749 216.564,137.755 C243.712,141.612 264.185,165.199 264.185,192.621 L264.185,193.387 C264.185,206.078 261.088,218.737 255.229,229.993 L234.884,269.081 C232.971,272.756 234.4,277.284 238.074,279.196 C239.18,279.772 240.364,280.046 241.531,280.046 C244.239,280.046 246.854,278.574 248.19,276.007 L268.535,236.919 C275.503,223.532 279.185,208.479 279.185,193.387 L279.185,192.621 C279.185,175.663 273.063,159.27 261.948,146.463 C250.845,133.671 235.499,125.309 218.731,122.913 Z" id="Path" fill="#222220"></path>
                <path d="M57.678,89.843 C58.827,89.843 59.981,89.579 61.046,89.044 C63.579,87.771 65.177,85.178 65.177,82.343 L65.177,52.55 L97.81,52.55 C101.952,52.55 105.31,49.193 105.31,45.05 C105.31,40.907 101.952,37.55 97.81,37.55 L65.177,37.55 L65.177,7.758 C65.177,4.923 63.578,2.33 61.046,1.057 C58.513,-0.216 55.479,0.048 53.204,1.739 L3.026,39.03 C1.122,40.445 0,42.678 0,45.05 C0,47.422 1.122,49.654 3.026,51.07 L53.203,88.363 C54.522,89.342 56.095,89.843 57.678,89.843 Z M50.177,67.424 L20.073,45.05 L50.177,22.677 L50.177,67.424 Z" id="Shape" fill="#222220"></path>
                <path d="M295.278,39.03 L245.1,1.738 C242.826,0.049 239.791,-0.215 237.258,1.056 C234.725,2.329 233.127,4.922 233.127,7.757 L233.127,37.55 L200.494,37.55 C196.352,37.55 192.994,40.907 192.994,45.05 C192.994,49.193 196.352,52.55 200.494,52.55 L233.127,52.55 L233.127,82.343 C233.127,85.178 234.726,87.771 237.258,89.044 C238.323,89.579 239.477,89.843 240.626,89.843 C242.209,89.843 243.782,89.342 245.101,88.363 L295.279,51.07 C297.183,49.655 298.305,47.423 298.305,45.05 C298.305,42.677 297.183,40.445 295.278,39.03 Z M248.127,67.424 L248.127,22.676 L278.231,45.05 L248.127,67.424 Z" id="Shape" fill="#222220"></path>
            </g>
        </g>
    </g>
</svg>